# File created by Blade
# Date/Time:  Tue Sep 30 19:29:42 2014
#---------------------------------------------------------
:version 1.10
:name HOM
:units
  mass 1.0
  length 1.000000
  angle deg
:documentation
     Acclaim Skeleton File
:root
   axis xyz
   order TX TY TZ RX RY RZ
   position 0.000000 0.000000 0.000000
   orientation 0 0 0
:bonedata
   begin
      id 1
      name RightUpLeg_dum
      direction -1.000000 0.000000 0.000000
      length 3.766986
      axis 0.0 0.0 0.0 xyz
   end
   begin
      id 2
      name LeftUpLeg_dum
      direction 1.000000 0.000000 0.000000
      length 3.766986
      axis 0.0 0.0 0.0 xyz
   end
   begin
      id 3
      name Spine_dum
      direction 0.000000 1.000000 0.000000
      length 7.779697
      axis 0.0 0.0 0.0 xyz
   end
   begin
      id 4
      name RightUpLeg
      direction 0.000000 -1.000000 0.000000
      length 18.017682
      axis 0.0 0.0 0.0 xyz
      dof rx ry rz
   end
   begin
      id 5
      name RightLeg
      direction 0.000000 -1.000000 0.000000
      length 16.881075
      axis 0.0 0.0 0.0 xyz
      dof rx ry rz
   end
   begin
      id 6
      name RightFoot
      direction 0.000000 -0.258819 0.965926
      length 5.770812
      axis 15.0 0.0 0.0 xyz
      dof rx ry rz
   end
   begin
      id 7
      name RightToeBase
      direction 0.000000 0.000000 1.000000
      length 2.952750
      axis 0.0 0.0 0.0 xyz
      dof rx ry rz
   end
   begin
      id 8
      name LeftUpLeg
      direction 0.000000 -1.000000 0.000000
      length 18.017682
      axis 0.0 0.0 0.0 xyz
      dof rx ry rz
   end
   begin
      id 9
      name LeftLeg
      direction 0.000000 -1.000000 0.000000
      length 16.881075
      axis 0.0 0.0 0.0 xyz
      dof rx ry rz
   end
   begin
      id 10
      name LeftFoot
      direction 0.000000 -0.258819 0.965926
      length 5.770812
      axis 15.0 0.0 0.0 xyz
      dof rx ry rz
   end
   begin
      id 11
      name LeftToeBase
      direction 0.000000 0.000000 1.000000
      length 2.952750
      axis 0.0 0.0 0.0 xyz
      dof rx ry rz
   end
   begin
      id 12
      name Spine
      direction 0.000000 1.000000 0.000000
      length 0.000000
      axis 0.0 0.0 0.0 xyz
      dof rx ry rz
   end
   begin
      id 13
      name Spine_dum1
      direction 0.000000 1.000000 0.000000
      length 10.941760
      axis 0.0 0.0 0.0 xyz
   end
   begin
      id 14
      name Spine_dum2
      direction 0.000000 1.000000 0.000000
      length 10.941760
      axis 0.0 0.0 0.0 xyz
   end
   begin
      id 15
      name Spine_dum3
      direction 0.000000 1.000000 0.000000
      length 16.646042
      axis 0.0 0.0 0.0 xyz
   end
   begin
      id 16
      name RightShoulder
      direction -1.000000 0.000000 0.000000
      length 7.708937
      axis 0.0 0.0 90.0 xyz
      dof rx ry rz
   end
   begin
      id 17
      name RightArm
      direction -1.000000 0.000000 0.000000
      length 11.521345
      axis 0.0 0.0 90.0 xyz
      dof rx ry rz
   end
   begin
      id 18
      name RightForeArm
      direction -1.000000 0.000000 0.000000
      length 10.175898
      axis 0.0 0.0 90.0 xyz
      dof ry rz rx
   end
   begin
      id 19
      name RightHand
      direction -1.000000 0.000000 0.000000
      length 0.000000
      axis 0.0 0.0 90.0 xyz
      dof rx ry rz
   end
   begin
      id 20
      name RightHand_dum1
      direction -1.000000 0.000000 0.000000
      length 3.937000
      axis 0.0 0.0 90.0 xyz
   end
   begin
      id 21
      name RightHand_dum2
      direction 0.000000 0.000000 0.000000
      length 0.000000
      axis 0.0 0.0 90.0 xyz
   end
   begin
      id 22
      name RightHandThumb1
      direction 0.000000 0.000000 1.000000
      length 3.937000
      axis 0.0 0.0 90.0 xyz
      dof rx rz ry
   end
   begin
      id 23
      name LeftShoulder
      direction 1.000000 0.000000 0.000000
      length 7.708937
      axis 0.0 0.0 -90.0 xyz
      dof rx ry rz
   end
   begin
      id 24
      name LeftArm
      direction 1.000000 0.000000 0.000000
      length 11.521345
      axis 0.0 0.0 -90.0 xyz
      dof rx ry rz
   end
   begin
      id 25
      name LeftForeArm
      direction 1.000000 0.000000 0.000000
      length 10.175898
      axis 0.0 0.0 -90.0 xyz
      dof ry rz rx
   end
   begin
      id 26
      name LeftHand
      direction 1.000000 0.000000 0.000000
      length 0.000000
      axis 0.0 0.0 -90.0 xyz
      dof rx ry rz
   end
   begin
      id 27
      name LeftHand_dum1
      direction 1.000000 0.000000 0.000000
      length 3.937000
      axis 0.0 0.0 -90.0 xyz
   end
   begin
      id 28
      name LeftHand_dum2
      direction 0.000000 0.000000 0.000000
      length 0.000000
      axis 0.0 0.0 -90.0 xyz
   end
   begin
      id 29
      name LeftHandThumb1
      direction 0.000000 0.000000 1.000000
      length 3.937000
      axis 0.0 0.0 -90.0 xyz
      dof rx rz ry
   end
   begin
      id 30
      name Head
      direction 0.000000 1.000000 0.000000
      length 4.527550
      axis 0.0 0.0 0.0 xyz
      dof rx ry rz
   end
:hierarchy
   begin
      root RightUpLeg_dum LeftUpLeg_dum Spine_dum
      RightUpLeg_dum RightUpLeg
      LeftUpLeg_dum LeftUpLeg
      Spine_dum Spine
      RightUpLeg RightLeg
      RightLeg RightFoot
      RightFoot RightToeBase
      LeftUpLeg LeftLeg
      LeftLeg LeftFoot
      LeftFoot LeftToeBase
      Spine Spine_dum1 Spine_dum2 Spine_dum3
      Spine_dum1 RightShoulder
      Spine_dum2 LeftShoulder
      Spine_dum3 Head
      RightShoulder RightArm
      RightArm RightForeArm
      RightForeArm RightHand
      RightHand RightHand_dum1 RightHand_dum2
      RightHand_dum2 RightHandThumb1
      LeftShoulder LeftArm
      LeftArm LeftForeArm
      LeftForeArm LeftHand
      LeftHand LeftHand_dum1 LeftHand_dum2
      LeftHand_dum2 LeftHandThumb1
   end

# File created by Blade
# Date/Time:  Mon Sep 22 17:38:34 2014
# Frame Rate: 120.000 fps
#------------------------------------------------------
:FULLY-SPECIFIED
:DEGREES
422
root 2.374386 37.706051 6.300350 -18.522657 -25.379349 10.869406
RightUpLeg 18.343334 9.626960 -4.456560
RightLeg 0.605672 -0.000000 -0.000000
RightFoot -11.618985 -10.575754 9.443849
RightToeBase 12.862313 -0.000000 -0.000000
LeftUpLeg -35.519583 -19.926367 -13.190791
LeftLeg 70.211803 -0.000000 -0.000000
LeftFoot 4.911138 9.816859 -25.840632
LeftToeBase 0.154886 -0.000000 -0.000000
Spine 20.412852 5.377486 -2.477361
RightShoulder 4.378167 -27.425341 -14.100237
RightArm 27.747422 -26.280938 55.454333
RightForeArm 4.093137 -0.000000 44.036463
RightHand -0.673657 0.000000 -0.477495
RightHandThumb1 -24.326973 -0.000000 -32.862282
LeftShoulder -21.275759 30.019963 -0.137673
LeftArm 56.905404 -33.954944 -59.378062
LeftForeArm 37.420431 -0.000000 55.434149
LeftHand -17.691501 0.000000 -26.868438
LeftHandThumb1 -26.253704 0.000000 33.147579
Head 16.465906 24.682123 -8.060278
423
root 2.366641 37.704604 6.296628 -18.500362 -25.394654 10.851943
RightUpLeg 18.314498 9.589926 -4.444014
RightLeg 0.627474 -0.000000 -0.000000
RightFoot -11.656650 -10.514109 9.497823
RightToeBase 12.911969 -0.000000 -0.000000
LeftUpLeg -35.491076 -19.912321 -13.184433
LeftLeg 70.144201 -0.000000 -0.000000
LeftFoot 4.968942 9.798879 -25.807875
LeftToeBase 0.113894 -0.000000 -0.000000
Spine 20.364475 5.356933 -2.473452
RightShoulder 4.363636 -27.431865 -14.105058
RightArm 27.612001 -26.289196 55.531427
RightForeArm 4.087832 -0.000000 44.052470
RightHand -0.713256 -0.000000 -0.528916
RightHandThumb1 -24.326973 -0.000000 -32.862282
LeftShoulder -21.279446 30.029027 -0.168060
LeftArm 56.917670 -33.953769 -59.290468
LeftForeArm 37.365530 -0.000000 55.374951
LeftHand -18.213532 -0.000000 -26.601697
LeftHandThumb1 -26.253704 0.000000 33.147579
Head 16.534588 24.745314 -8.079197
424
root 2.358848 37.703646 6.295939 -18.491328 -25.400069 10.830611
RightUpLeg 18.317606 9.579437 -4.426859
RightLeg 0.626482 -0.000000 -0.000000
RightFoot -11.669816 -10.428711 9.573635
RightToeBase 12.977451 -0.000000 -0.000000
LeftUpLeg -35.438225 -19.904220 -13.190045
LeftLeg 70.084206 -0.000000 -0.000000
LeftFoot 5.004016 9.748579 -25.826675
LeftToeBase 0.160539 -0.000000 -0.000000
Spine 20.326979 5.315847 -2.468400
RightShoulder 4.330741 -27.507876 -14.112647
RightArm 27.550862 -26.223545 55.607704
RightForeArm 4.118351 -0.000000 44.037712
RightHand -0.733613 -0.000000 -0.450883
RightHandThumb1 -24.326973 -0.000000 -32.862282
LeftShoulder -21.291737 30.040728 -0.184587
LeftArm 56.909862 -33.941941 -59.265403
LeftForeArm 37.363610 0.000000 55.399689
LeftHand -18.060979 -0.000000 -26.707044
LeftHandThumb1 -26.253704 0.000000 33.147579
Head 16.642206 24.919041 -8.000408
425
root 2.350190 37.702525 6.296168 -18.481761 -25.405667 10.810735
RightUpLeg 18.319895 9.566307 -4.406765
RightLeg 0.634583 -0.000000 -0.000000
RightFoot -11.701769 -10.373448 9.627369
RightToeBase 13.004838 -0.000000 -0.000000
LeftUpLeg -35.385701 -19.906580 -13.194528
LeftLeg 70.043329 -0.000000 -0.000000
LeftFoot 5.022600 9.690011 -25.825121
LeftToeBase 0.192298 -0.000000 -0.000000
Spine 20.284248 5.285182 -2.466756
RightShoulder 4.287412 -27.602440 -14.101674
RightArm 27.493653 -26.116768 55.704073
RightForeArm 4.079486 0.000000 44.012883
RightHand -0.702401 -0.000000 -0.514965
RightHandThumb1 -24.326973 -0.000000 -32.862282
LeftShoulder -21.307226 30.057485 -0.189296
LeftArm 56.921431 -33.920630 -59.262794
LeftForeArm 37.420225 -0.000000 55.423258
LeftHand -17.964277 -0.000000 -26.784534
LeftHandThumb1 -26.253704 0.000000 33.147579
Head 16.706076 24.992138 -8.002849
